<svg width="474" height="421" viewBox="0 0 474 421" fill="none" xmlns="http://www.w3.org/2000/svg">
<path d="M63.5742 127.883C57.7018 127.883 54.7656 125.48 54.7656 120.676V107.543C54.7656 102.738 57.7018 100.336 63.5742 100.336H233.02C238.892 100.336 241.828 102.738 241.828 107.543V120.676C241.828 125.48 238.892 127.883 233.02 127.883H163.672V321.191C163.672 327.064 161.003 330 155.664 330H140.93C135.591 330 132.922 327.064 132.922 321.191V127.883H63.5742ZM219.605 110.906C216.936 103.859 218.377 100.336 223.929 100.336H240.265C246.031 100.336 249.874 102.952 251.796 108.184L303.847 251.523C306.089 257.823 308.865 266.311 312.175 276.988C315.592 287.559 317.887 295.993 319.062 302.293H319.702C320.877 295.993 323.119 287.559 326.429 276.988C329.846 266.311 332.675 257.823 334.917 251.523L386.968 108.184C388.89 102.952 392.734 100.336 398.499 100.336H414.835C420.387 100.336 421.829 103.859 419.16 110.906L341.163 320.23C338.708 326.743 335.184 330 330.593 330H308.171C303.58 330 300.057 326.743 297.601 320.23L219.605 110.906Z" fill="black" fill-opacity="0.8"/>
</svg>
