<svg width="612" height="612" viewBox="0 0 612 612" fill="none" xmlns="http://www.w3.org/2000/svg">
<path d="M152.442 248.054C147.959 236.267 150.38 230.374 159.703 230.374H187.136C196.818 230.374 203.273 234.749 206.5 243.5L254.998 385.899C258.763 396.436 263.425 410.633 268.983 428.491C274.721 446.172 278.576 460.279 280.548 470.816H281.624C283.596 460.279 427.2 125.807 432.758 108.126C435.986 99.3753 442.441 95 452.124 95H479.556C488.88 95 491.3 100.893 486.818 112.68L317.663 500.818C313.539 511.711 307.623 517.159 299.911 517.159H262.26C254.55 517.159 248.633 511.711 244.509 500.818L152.442 248.054Z" fill="black" fill-opacity="0.8"/>
</svg>
