<svg width="1297" height="612" viewBox="0 0 1297 612" fill="none" xmlns="http://www.w3.org/2000/svg">
<path d="M250.183 248.054C245.701 236.267 248.121 230.374 257.445 230.374H284.877C294.559 230.374 301.014 234.749 304.241 243.5L352.74 385.899C356.505 396.436 361.166 410.633 366.725 428.491C372.462 446.172 376.318 460.279 378.289 470.816H379.365C381.337 460.279 524.941 125.807 530.5 108.126C533.727 99.3753 540.182 95 549.865 95H577.298C586.621 95 589.041 100.893 584.559 112.68L415.404 500.818C411.28 511.711 405.364 517.159 397.653 517.159H360.001C352.291 517.159 346.374 511.711 342.251 500.818L250.183 248.054Z" fill="black" fill-opacity="0.8"/>
<path d="M679.244 403C676.445 403 675.045 401.46 675.045 398.381V287.186C675.045 284.106 676.445 282.566 679.244 282.566H710.234C733.974 282.566 750.463 287.829 759.701 298.355C768.995 308.826 773.643 323.579 773.643 342.615C773.643 361.652 768.995 376.489 759.701 387.127C750.463 397.709 733.974 403 710.234 403H679.244ZM691.17 389.227H709.479C727.955 389.227 740.385 385.307 746.768 377.469C753.206 369.63 756.426 358.012 756.426 342.615C756.426 327.218 753.206 315.628 746.768 307.846C740.385 300.063 727.955 296.172 709.479 296.172H691.17V389.227ZM788.508 358.908C788.508 345.751 791.979 334.889 798.922 326.322C805.921 317.7 816.139 313.389 829.576 313.389C843.014 313.389 853.204 317.7 860.146 326.322C867.145 334.889 870.645 345.751 870.645 358.908C870.645 372.066 867.145 382.956 860.146 391.578C853.204 400.145 843.014 404.428 829.576 404.428C816.139 404.428 805.921 400.145 798.922 391.578C791.979 382.956 788.508 372.066 788.508 358.908ZM804.129 358.908C804.129 370.666 806.452 379.372 811.1 385.027C815.747 390.682 821.906 393.51 829.576 393.51C837.247 393.51 843.406 390.682 848.053 385.027C852.7 379.372 855.023 370.666 855.023 358.908C855.023 347.15 852.7 338.444 848.053 332.789C843.406 327.134 837.247 324.307 829.576 324.307C821.906 324.307 815.747 327.134 811.1 332.789C806.452 338.444 804.129 347.15 804.129 358.908ZM884.922 358.908C884.922 345.751 888.169 334.889 894.664 326.322C901.215 317.7 911.209 313.389 924.646 313.389C933.717 313.389 940.632 315.012 945.391 318.26C950.206 321.451 953.677 324.727 955.805 328.086C956.98 329.934 956.729 331.417 955.049 332.537L949.758 335.98C948.078 337.156 946.398 336.4 944.719 333.713C943.095 331.137 940.799 328.926 937.832 327.078C934.921 325.23 930.525 324.307 924.646 324.307C916.976 324.307 911.041 327.134 906.842 332.789C902.643 338.444 900.543 347.15 900.543 358.908C900.543 370.666 902.643 379.372 906.842 385.027C911.041 390.682 916.976 393.51 924.646 393.51C930.861 393.51 935.62 392.334 938.924 389.982C942.227 387.575 944.635 384.971 946.146 382.172C947.602 379.54 949.254 378.785 951.102 379.904L956.729 383.264C958.408 384.271 958.66 385.783 957.484 387.799C956.085 390.206 952.893 393.594 947.91 397.961C942.983 402.272 935.229 404.428 924.646 404.428C911.209 404.428 901.215 400.145 894.664 391.578C888.169 382.956 884.922 372.066 884.922 358.908ZM972.434 394.77C970.698 393.146 970.334 391.634 971.342 390.234L975.121 384.943C976.353 383.264 978.173 383.348 980.58 385.195C983.883 387.715 987.551 389.73 991.582 391.242C995.669 392.754 1000.32 393.51 1005.52 393.51C1008.6 393.51 1011.35 393.146 1013.75 392.418C1016.16 391.634 1018.26 390.206 1020.05 388.135C1021.9 386.063 1022.82 383.292 1022.82 379.82C1022.82 377.805 1022.38 375.901 1021.48 374.109C1020.64 372.318 1019.3 370.89 1017.45 369.826C1015.66 368.706 1013.89 367.839 1012.16 367.223C1009.3 366.159 1006.45 365.291 1003.59 364.619C1000.79 363.891 997.097 362.799 992.506 361.344C989.426 360.392 986.515 359.048 983.771 357.312C981.028 355.521 978.62 353.113 976.549 350.09C974.533 347.066 973.525 342.895 973.525 337.576C973.525 332.145 975.177 327.47 978.48 323.551C981.784 319.632 985.927 316.972 990.91 315.572C995.893 314.117 1000.74 313.389 1005.44 313.389C1012.38 313.389 1017.95 314.201 1022.15 315.824C1026.41 317.392 1030.07 319.268 1033.15 321.451C1034.95 322.739 1035.2 324.223 1033.91 325.902L1030.13 330.941C1028.96 332.565 1027.14 332.509 1024.67 330.773C1022.6 329.318 1019.66 327.946 1015.85 326.658C1012.05 325.37 1008.71 324.727 1005.86 324.727C1002.33 324.727 999.309 325.118 996.789 325.902C994.27 326.686 992.226 328.03 990.658 329.934C989.09 331.837 988.307 334.077 988.307 336.652C988.307 338.612 988.615 340.376 989.23 341.943C989.846 343.455 990.994 344.855 992.674 346.143C994.354 347.43 996.705 348.466 999.729 349.25C1004.43 350.482 1008.71 351.602 1012.58 352.609C1016.5 353.617 1020.02 354.849 1023.16 356.305C1027.25 358.208 1030.38 360.308 1032.57 362.604C1034.81 364.899 1036.35 367.391 1037.19 370.078C1038.03 372.71 1038.45 375.649 1038.45 378.896C1038.45 384.887 1036.65 389.954 1033.07 394.098C1029.54 398.241 1025.6 401.012 1021.23 402.412C1016.86 403.756 1011.6 404.428 1005.44 404.428C997.097 404.428 989.93 403.252 983.939 400.9C978.005 398.493 974.169 396.449 972.434 394.77Z" fill="black" fill-opacity="0.4"/>
</svg>
